<mxfile host="app.diagrams.net" agent="Mozilla/5.0 (Windows NT 10.0; Win64; x64) AppleWebKit/537.36 (KHTML, like Gecko) Chrome/130.0.0.0 Safari/537.36" version="26.0.5">
  <diagram name="페이지-1" id="apDUXlThmBqd4dcjJ--l">
    <mxGraphModel dx="2901" dy="1106" grid="1" gridSize="10" guides="1" tooltips="1" connect="1" arrows="1" fold="1" page="1" pageScale="1" pageWidth="827" pageHeight="1169" math="0" shadow="0">
      <root>
        <mxCell id="0" />
        <mxCell id="1" parent="0" />
        <mxCell id="2CEokhsZx8plSX26IugD-3" value="stageList" style="swimlane;fontStyle=0;childLayout=stackLayout;horizontal=1;startSize=30;horizontalStack=0;resizeParent=1;resizeParentMax=0;resizeLast=0;collapsible=1;marginBottom=0;whiteSpace=wrap;html=1;" vertex="1" parent="1">
          <mxGeometry x="130" y="530" width="140" height="120" as="geometry" />
        </mxCell>
        <mxCell id="2CEokhsZx8plSX26IugD-4" value="Item 1" style="text;strokeColor=none;fillColor=none;align=left;verticalAlign=middle;spacingLeft=4;spacingRight=4;overflow=hidden;points=[[0,0.5],[1,0.5]];portConstraint=eastwest;rotatable=0;whiteSpace=wrap;html=1;" vertex="1" parent="2CEokhsZx8plSX26IugD-3">
          <mxGeometry y="30" width="140" height="30" as="geometry" />
        </mxCell>
        <mxCell id="2CEokhsZx8plSX26IugD-6" value="완료 보상 그룹id" style="text;strokeColor=none;fillColor=none;align=left;verticalAlign=middle;spacingLeft=4;spacingRight=4;overflow=hidden;points=[[0,0.5],[1,0.5]];portConstraint=eastwest;rotatable=0;whiteSpace=wrap;html=1;" vertex="1" parent="2CEokhsZx8plSX26IugD-3">
          <mxGeometry y="60" width="140" height="30" as="geometry" />
        </mxCell>
        <mxCell id="2CEokhsZx8plSX26IugD-7" value="최초 보상 그룹id" style="text;strokeColor=none;fillColor=none;align=left;verticalAlign=middle;spacingLeft=4;spacingRight=4;overflow=hidden;points=[[0,0.5],[1,0.5]];portConstraint=eastwest;rotatable=0;whiteSpace=wrap;html=1;" vertex="1" parent="2CEokhsZx8plSX26IugD-3">
          <mxGeometry y="90" width="140" height="30" as="geometry" />
        </mxCell>
        <mxCell id="2CEokhsZx8plSX26IugD-8" value="DefRewardContentsType" style="swimlane;fontStyle=0;childLayout=stackLayout;horizontal=1;startSize=30;horizontalStack=0;resizeParent=1;resizeParentMax=0;resizeLast=0;collapsible=1;marginBottom=0;whiteSpace=wrap;html=1;" vertex="1" parent="1">
          <mxGeometry x="390" y="670" width="140" height="90" as="geometry" />
        </mxCell>
        <mxCell id="2CEokhsZx8plSX26IugD-9" value="id" style="text;strokeColor=none;fillColor=none;align=left;verticalAlign=middle;spacingLeft=4;spacingRight=4;overflow=hidden;points=[[0,0.5],[1,0.5]];portConstraint=eastwest;rotatable=0;whiteSpace=wrap;html=1;" vertex="1" parent="2CEokhsZx8plSX26IugD-8">
          <mxGeometry y="30" width="140" height="30" as="geometry" />
        </mxCell>
        <mxCell id="2CEokhsZx8plSX26IugD-14" value="리소스 정보" style="text;strokeColor=none;fillColor=none;align=left;verticalAlign=middle;spacingLeft=4;spacingRight=4;overflow=hidden;points=[[0,0.5],[1,0.5]];portConstraint=eastwest;rotatable=0;whiteSpace=wrap;html=1;" vertex="1" parent="2CEokhsZx8plSX26IugD-8">
          <mxGeometry y="60" width="140" height="30" as="geometry" />
        </mxCell>
        <mxCell id="2CEokhsZx8plSX26IugD-12" value="RewardGroup" style="swimlane;fontStyle=0;childLayout=stackLayout;horizontal=1;startSize=30;horizontalStack=0;resizeParent=1;resizeParentMax=0;resizeLast=0;collapsible=1;marginBottom=0;whiteSpace=wrap;html=1;" vertex="1" parent="1">
          <mxGeometry x="-130" y="630" width="140" height="60" as="geometry" />
        </mxCell>
        <mxCell id="2CEokhsZx8plSX26IugD-13" value="id" style="text;strokeColor=none;fillColor=none;align=left;verticalAlign=middle;spacingLeft=4;spacingRight=4;overflow=hidden;points=[[0,0.5],[1,0.5]];portConstraint=eastwest;rotatable=0;whiteSpace=wrap;html=1;" vertex="1" parent="2CEokhsZx8plSX26IugD-12">
          <mxGeometry y="30" width="140" height="30" as="geometry" />
        </mxCell>
        <mxCell id="2CEokhsZx8plSX26IugD-16" style="edgeStyle=orthogonalEdgeStyle;rounded=0;orthogonalLoop=1;jettySize=auto;html=1;exitX=1;exitY=0.5;exitDx=0;exitDy=0;" edge="1" parent="1" source="2CEokhsZx8plSX26IugD-13" target="2CEokhsZx8plSX26IugD-7">
          <mxGeometry relative="1" as="geometry" />
        </mxCell>
        <mxCell id="2CEokhsZx8plSX26IugD-19" style="edgeStyle=orthogonalEdgeStyle;rounded=0;orthogonalLoop=1;jettySize=auto;html=1;exitX=1;exitY=0.5;exitDx=0;exitDy=0;entryX=0;entryY=0.5;entryDx=0;entryDy=0;" edge="1" parent="1" source="2CEokhsZx8plSX26IugD-7" target="2CEokhsZx8plSX26IugD-14">
          <mxGeometry relative="1" as="geometry" />
        </mxCell>
        <mxCell id="2CEokhsZx8plSX26IugD-21" value="결과물" style="shape=process;whiteSpace=wrap;html=1;backgroundOutline=1;fillColor=#ffe6cc;strokeColor=#d79b00;" vertex="1" parent="1">
          <mxGeometry x="650" y="715" width="120" height="60" as="geometry" />
        </mxCell>
        <mxCell id="2CEokhsZx8plSX26IugD-20" style="edgeStyle=orthogonalEdgeStyle;rounded=0;orthogonalLoop=1;jettySize=auto;html=1;exitX=1;exitY=0.5;exitDx=0;exitDy=0;" edge="1" parent="1" source="2CEokhsZx8plSX26IugD-14" target="2CEokhsZx8plSX26IugD-21">
          <mxGeometry relative="1" as="geometry">
            <mxPoint x="690" y="610" as="targetPoint" />
          </mxGeometry>
        </mxCell>
        <mxCell id="2CEokhsZx8plSX26IugD-23" value="DefRewardContentsType" style="swimlane;fontStyle=0;childLayout=stackLayout;horizontal=1;startSize=30;horizontalStack=0;resizeParent=1;resizeParentMax=0;resizeLast=0;collapsible=1;marginBottom=0;whiteSpace=wrap;html=1;" vertex="1" parent="1">
          <mxGeometry x="390" y="410" width="140" height="90" as="geometry" />
        </mxCell>
        <mxCell id="2CEokhsZx8plSX26IugD-24" value="id" style="text;strokeColor=none;fillColor=none;align=left;verticalAlign=middle;spacingLeft=4;spacingRight=4;overflow=hidden;points=[[0,0.5],[1,0.5]];portConstraint=eastwest;rotatable=0;whiteSpace=wrap;html=1;" vertex="1" parent="2CEokhsZx8plSX26IugD-23">
          <mxGeometry y="30" width="140" height="30" as="geometry" />
        </mxCell>
        <mxCell id="2CEokhsZx8plSX26IugD-25" value="리소스 정보" style="text;strokeColor=none;fillColor=none;align=left;verticalAlign=middle;spacingLeft=4;spacingRight=4;overflow=hidden;points=[[0,0.5],[1,0.5]];portConstraint=eastwest;rotatable=0;whiteSpace=wrap;html=1;" vertex="1" parent="2CEokhsZx8plSX26IugD-23">
          <mxGeometry y="60" width="140" height="30" as="geometry" />
        </mxCell>
        <mxCell id="2CEokhsZx8plSX26IugD-22" style="edgeStyle=orthogonalEdgeStyle;rounded=0;orthogonalLoop=1;jettySize=auto;html=1;exitX=1;exitY=0.5;exitDx=0;exitDy=0;entryX=0;entryY=0.5;entryDx=0;entryDy=0;" edge="1" parent="1" source="2CEokhsZx8plSX26IugD-6" target="2CEokhsZx8plSX26IugD-25">
          <mxGeometry relative="1" as="geometry">
            <mxPoint x="370" y="550" as="targetPoint" />
          </mxGeometry>
        </mxCell>
        <mxCell id="2CEokhsZx8plSX26IugD-26" value="결과물" style="shape=process;whiteSpace=wrap;html=1;backgroundOutline=1;" vertex="1" parent="1">
          <mxGeometry x="630" y="455" width="120" height="60" as="geometry" />
        </mxCell>
        <mxCell id="2CEokhsZx8plSX26IugD-27" style="edgeStyle=orthogonalEdgeStyle;rounded=0;orthogonalLoop=1;jettySize=auto;html=1;exitX=1;exitY=0.5;exitDx=0;exitDy=0;entryX=0;entryY=0.5;entryDx=0;entryDy=0;" edge="1" parent="1" source="2CEokhsZx8plSX26IugD-25" target="2CEokhsZx8plSX26IugD-26">
          <mxGeometry relative="1" as="geometry" />
        </mxCell>
        <mxCell id="2CEokhsZx8plSX26IugD-28" value="코드단에서 어느 리소스를 사용할지 확인" style="text;html=1;align=center;verticalAlign=middle;whiteSpace=wrap;rounded=0;" vertex="1" parent="1">
          <mxGeometry x="330" y="550" width="230" height="30" as="geometry" />
        </mxCell>
        <mxCell id="2CEokhsZx8plSX26IugD-29" value="코드단에서 어느 리소스를 사용할지 확인" style="text;html=1;align=center;verticalAlign=middle;whiteSpace=wrap;rounded=0;" vertex="1" parent="1">
          <mxGeometry x="330" y="630" width="230" height="30" as="geometry" />
        </mxCell>
        <mxCell id="2CEokhsZx8plSX26IugD-30" value="stageList" style="swimlane;fontStyle=0;childLayout=stackLayout;horizontal=1;startSize=30;horizontalStack=0;resizeParent=1;resizeParentMax=0;resizeLast=0;collapsible=1;marginBottom=0;whiteSpace=wrap;html=1;" vertex="1" parent="1">
          <mxGeometry x="360" y="930" width="140" height="120" as="geometry" />
        </mxCell>
        <mxCell id="2CEokhsZx8plSX26IugD-31" value="Item 1" style="text;strokeColor=none;fillColor=none;align=left;verticalAlign=middle;spacingLeft=4;spacingRight=4;overflow=hidden;points=[[0,0.5],[1,0.5]];portConstraint=eastwest;rotatable=0;whiteSpace=wrap;html=1;" vertex="1" parent="2CEokhsZx8plSX26IugD-30">
          <mxGeometry y="30" width="140" height="30" as="geometry" />
        </mxCell>
        <mxCell id="2CEokhsZx8plSX26IugD-32" value="완료 보상 그룹id" style="text;strokeColor=none;fillColor=none;align=left;verticalAlign=middle;spacingLeft=4;spacingRight=4;overflow=hidden;points=[[0,0.5],[1,0.5]];portConstraint=eastwest;rotatable=0;whiteSpace=wrap;html=1;" vertex="1" parent="2CEokhsZx8plSX26IugD-30">
          <mxGeometry y="60" width="140" height="30" as="geometry" />
        </mxCell>
        <mxCell id="2CEokhsZx8plSX26IugD-33" value="최초 보상 그룹id" style="text;strokeColor=none;fillColor=none;align=left;verticalAlign=middle;spacingLeft=4;spacingRight=4;overflow=hidden;points=[[0,0.5],[1,0.5]];portConstraint=eastwest;rotatable=0;whiteSpace=wrap;html=1;" vertex="1" parent="2CEokhsZx8plSX26IugD-30">
          <mxGeometry y="90" width="140" height="30" as="geometry" />
        </mxCell>
        <mxCell id="2CEokhsZx8plSX26IugD-34" value="DefRewardContentsType" style="swimlane;fontStyle=0;childLayout=stackLayout;horizontal=1;startSize=30;horizontalStack=0;resizeParent=1;resizeParentMax=0;resizeLast=0;collapsible=1;marginBottom=0;whiteSpace=wrap;html=1;" vertex="1" parent="1">
          <mxGeometry x="-90" y="855" width="140" height="90" as="geometry" />
        </mxCell>
        <mxCell id="2CEokhsZx8plSX26IugD-35" value="id" style="text;strokeColor=none;fillColor=none;align=left;verticalAlign=middle;spacingLeft=4;spacingRight=4;overflow=hidden;points=[[0,0.5],[1,0.5]];portConstraint=eastwest;rotatable=0;whiteSpace=wrap;html=1;" vertex="1" parent="2CEokhsZx8plSX26IugD-34">
          <mxGeometry y="30" width="140" height="30" as="geometry" />
        </mxCell>
        <mxCell id="2CEokhsZx8plSX26IugD-36" value="리소스 정보" style="text;strokeColor=none;fillColor=none;align=left;verticalAlign=middle;spacingLeft=4;spacingRight=4;overflow=hidden;points=[[0,0.5],[1,0.5]];portConstraint=eastwest;rotatable=0;whiteSpace=wrap;html=1;" vertex="1" parent="2CEokhsZx8plSX26IugD-34">
          <mxGeometry y="60" width="140" height="30" as="geometry" />
        </mxCell>
        <mxCell id="2CEokhsZx8plSX26IugD-37" value="RewardGroup" style="swimlane;fontStyle=0;childLayout=stackLayout;horizontal=1;startSize=30;horizontalStack=0;resizeParent=1;resizeParentMax=0;resizeLast=0;collapsible=1;marginBottom=0;whiteSpace=wrap;html=1;" vertex="1" parent="1">
          <mxGeometry x="100" y="1030" width="140" height="90" as="geometry" />
        </mxCell>
        <mxCell id="2CEokhsZx8plSX26IugD-38" value="id" style="text;strokeColor=none;fillColor=none;align=left;verticalAlign=middle;spacingLeft=4;spacingRight=4;overflow=hidden;points=[[0,0.5],[1,0.5]];portConstraint=eastwest;rotatable=0;whiteSpace=wrap;html=1;" vertex="1" parent="2CEokhsZx8plSX26IugD-37">
          <mxGeometry y="30" width="140" height="30" as="geometry" />
        </mxCell>
        <mxCell id="2CEokhsZx8plSX26IugD-52" value="&lt;span style=&quot;text-align: center;&quot;&gt;DefRewardContentsType&lt;/span&gt;" style="text;strokeColor=none;fillColor=none;align=left;verticalAlign=middle;spacingLeft=4;spacingRight=4;overflow=hidden;points=[[0,0.5],[1,0.5]];portConstraint=eastwest;rotatable=0;whiteSpace=wrap;html=1;" vertex="1" parent="2CEokhsZx8plSX26IugD-37">
          <mxGeometry y="60" width="140" height="30" as="geometry" />
        </mxCell>
        <mxCell id="2CEokhsZx8plSX26IugD-39" style="edgeStyle=orthogonalEdgeStyle;rounded=0;orthogonalLoop=1;jettySize=auto;html=1;exitX=1;exitY=0.5;exitDx=0;exitDy=0;" edge="1" parent="1" source="2CEokhsZx8plSX26IugD-38" target="2CEokhsZx8plSX26IugD-33">
          <mxGeometry relative="1" as="geometry" />
        </mxCell>
        <mxCell id="2CEokhsZx8plSX26IugD-41" value="결과물" style="shape=process;whiteSpace=wrap;html=1;backgroundOutline=1;fillColor=#ffe6cc;strokeColor=#d79b00;" vertex="1" parent="1">
          <mxGeometry x="670" y="1060" width="120" height="60" as="geometry" />
        </mxCell>
        <mxCell id="2CEokhsZx8plSX26IugD-47" value="결과물" style="shape=process;whiteSpace=wrap;html=1;backgroundOutline=1;" vertex="1" parent="1">
          <mxGeometry x="660" y="880" width="120" height="60" as="geometry" />
        </mxCell>
        <mxCell id="2CEokhsZx8plSX26IugD-53" style="edgeStyle=orthogonalEdgeStyle;rounded=0;orthogonalLoop=1;jettySize=auto;html=1;exitX=1;exitY=0.5;exitDx=0;exitDy=0;entryX=0;entryY=0.5;entryDx=0;entryDy=0;" edge="1" parent="1" source="2CEokhsZx8plSX26IugD-35" target="2CEokhsZx8plSX26IugD-52">
          <mxGeometry relative="1" as="geometry" />
        </mxCell>
        <mxCell id="2CEokhsZx8plSX26IugD-54" style="edgeStyle=orthogonalEdgeStyle;rounded=0;orthogonalLoop=1;jettySize=auto;html=1;exitX=1;exitY=0.5;exitDx=0;exitDy=0;entryX=0;entryY=0.5;entryDx=0;entryDy=0;" edge="1" parent="1" source="2CEokhsZx8plSX26IugD-13" target="2CEokhsZx8plSX26IugD-6">
          <mxGeometry relative="1" as="geometry" />
        </mxCell>
        <mxCell id="2CEokhsZx8plSX26IugD-55" value="보상 내용을 입력" style="text;html=1;align=center;verticalAlign=middle;whiteSpace=wrap;rounded=0;" vertex="1" parent="1">
          <mxGeometry x="-30" y="670" width="230" height="30" as="geometry" />
        </mxCell>
        <mxCell id="2CEokhsZx8plSX26IugD-56" value="보상 내용 및 외형을 입력" style="text;html=1;align=center;verticalAlign=middle;whiteSpace=wrap;rounded=0;" vertex="1" parent="1">
          <mxGeometry x="240" y="1100" width="230" height="30" as="geometry" />
        </mxCell>
        <mxCell id="2CEokhsZx8plSX26IugD-57" style="edgeStyle=orthogonalEdgeStyle;rounded=0;orthogonalLoop=1;jettySize=auto;html=1;exitX=1;exitY=0.5;exitDx=0;exitDy=0;entryX=0;entryY=0.5;entryDx=0;entryDy=0;" edge="1" parent="1" source="2CEokhsZx8plSX26IugD-38" target="2CEokhsZx8plSX26IugD-32">
          <mxGeometry relative="1" as="geometry" />
        </mxCell>
        <mxCell id="2CEokhsZx8plSX26IugD-58" style="edgeStyle=orthogonalEdgeStyle;rounded=0;orthogonalLoop=1;jettySize=auto;html=1;exitX=1;exitY=0.5;exitDx=0;exitDy=0;entryX=0;entryY=0.5;entryDx=0;entryDy=0;" edge="1" parent="1" source="2CEokhsZx8plSX26IugD-32" target="2CEokhsZx8plSX26IugD-47">
          <mxGeometry relative="1" as="geometry" />
        </mxCell>
        <mxCell id="2CEokhsZx8plSX26IugD-59" style="edgeStyle=orthogonalEdgeStyle;rounded=0;orthogonalLoop=1;jettySize=auto;html=1;exitX=1;exitY=0.5;exitDx=0;exitDy=0;entryX=0;entryY=0.5;entryDx=0;entryDy=0;" edge="1" parent="1" source="2CEokhsZx8plSX26IugD-33" target="2CEokhsZx8plSX26IugD-41">
          <mxGeometry relative="1" as="geometry" />
        </mxCell>
        <mxCell id="2CEokhsZx8plSX26IugD-60" value="데이터에 설정된 리소스대로 출력" style="text;html=1;align=center;verticalAlign=middle;whiteSpace=wrap;rounded=0;" vertex="1" parent="1">
          <mxGeometry x="480" y="1000" width="230" height="30" as="geometry" />
        </mxCell>
        <mxCell id="2CEokhsZx8plSX26IugD-61" value="stageList" style="swimlane;fontStyle=0;childLayout=stackLayout;horizontal=1;startSize=30;horizontalStack=0;resizeParent=1;resizeParentMax=0;resizeLast=0;collapsible=1;marginBottom=0;whiteSpace=wrap;html=1;" vertex="1" parent="1">
          <mxGeometry x="325" y="1325" width="140" height="120" as="geometry" />
        </mxCell>
        <mxCell id="2CEokhsZx8plSX26IugD-62" value="Item 1" style="text;strokeColor=none;fillColor=none;align=left;verticalAlign=middle;spacingLeft=4;spacingRight=4;overflow=hidden;points=[[0,0.5],[1,0.5]];portConstraint=eastwest;rotatable=0;whiteSpace=wrap;html=1;" vertex="1" parent="2CEokhsZx8plSX26IugD-61">
          <mxGeometry y="30" width="140" height="30" as="geometry" />
        </mxCell>
        <mxCell id="2CEokhsZx8plSX26IugD-63" value="완료 보상 그룹id" style="text;strokeColor=none;fillColor=none;align=left;verticalAlign=middle;spacingLeft=4;spacingRight=4;overflow=hidden;points=[[0,0.5],[1,0.5]];portConstraint=eastwest;rotatable=0;whiteSpace=wrap;html=1;" vertex="1" parent="2CEokhsZx8plSX26IugD-61">
          <mxGeometry y="60" width="140" height="30" as="geometry" />
        </mxCell>
        <mxCell id="2CEokhsZx8plSX26IugD-64" value="최초 보상 그룹id" style="text;strokeColor=none;fillColor=none;align=left;verticalAlign=middle;spacingLeft=4;spacingRight=4;overflow=hidden;points=[[0,0.5],[1,0.5]];portConstraint=eastwest;rotatable=0;whiteSpace=wrap;html=1;" vertex="1" parent="2CEokhsZx8plSX26IugD-61">
          <mxGeometry y="90" width="140" height="30" as="geometry" />
        </mxCell>
        <mxCell id="2CEokhsZx8plSX26IugD-65" value="DefRewardContentsType" style="swimlane;fontStyle=0;childLayout=stackLayout;horizontal=1;startSize=30;horizontalStack=0;resizeParent=1;resizeParentMax=0;resizeLast=0;collapsible=1;marginBottom=0;whiteSpace=wrap;html=1;" vertex="1" parent="1">
          <mxGeometry x="-125" y="1250" width="140" height="90" as="geometry" />
        </mxCell>
        <mxCell id="2CEokhsZx8plSX26IugD-66" value="id" style="text;strokeColor=none;fillColor=none;align=left;verticalAlign=middle;spacingLeft=4;spacingRight=4;overflow=hidden;points=[[0,0.5],[1,0.5]];portConstraint=eastwest;rotatable=0;whiteSpace=wrap;html=1;" vertex="1" parent="2CEokhsZx8plSX26IugD-65">
          <mxGeometry y="30" width="140" height="30" as="geometry" />
        </mxCell>
        <mxCell id="2CEokhsZx8plSX26IugD-67" value="리소스 정보" style="text;strokeColor=none;fillColor=none;align=left;verticalAlign=middle;spacingLeft=4;spacingRight=4;overflow=hidden;points=[[0,0.5],[1,0.5]];portConstraint=eastwest;rotatable=0;whiteSpace=wrap;html=1;" vertex="1" parent="2CEokhsZx8plSX26IugD-65">
          <mxGeometry y="60" width="140" height="30" as="geometry" />
        </mxCell>
        <mxCell id="2CEokhsZx8plSX26IugD-68" value="RewardGroup" style="swimlane;fontStyle=0;childLayout=stackLayout;horizontal=1;startSize=30;horizontalStack=0;resizeParent=1;resizeParentMax=0;resizeLast=0;collapsible=1;marginBottom=0;whiteSpace=wrap;html=1;" vertex="1" parent="1">
          <mxGeometry x="65" y="1425" width="140" height="90" as="geometry" />
        </mxCell>
        <mxCell id="2CEokhsZx8plSX26IugD-69" value="id" style="text;strokeColor=none;fillColor=none;align=left;verticalAlign=middle;spacingLeft=4;spacingRight=4;overflow=hidden;points=[[0,0.5],[1,0.5]];portConstraint=eastwest;rotatable=0;whiteSpace=wrap;html=1;" vertex="1" parent="2CEokhsZx8plSX26IugD-68">
          <mxGeometry y="30" width="140" height="30" as="geometry" />
        </mxCell>
        <mxCell id="2CEokhsZx8plSX26IugD-70" value="&lt;span style=&quot;text-align: center;&quot;&gt;DefRewardContentsType&lt;/span&gt;" style="text;strokeColor=none;fillColor=none;align=left;verticalAlign=middle;spacingLeft=4;spacingRight=4;overflow=hidden;points=[[0,0.5],[1,0.5]];portConstraint=eastwest;rotatable=0;whiteSpace=wrap;html=1;" vertex="1" parent="2CEokhsZx8plSX26IugD-68">
          <mxGeometry y="60" width="140" height="30" as="geometry" />
        </mxCell>
        <mxCell id="2CEokhsZx8plSX26IugD-71" style="edgeStyle=orthogonalEdgeStyle;rounded=0;orthogonalLoop=1;jettySize=auto;html=1;exitX=1;exitY=0.5;exitDx=0;exitDy=0;" edge="1" parent="1" source="2CEokhsZx8plSX26IugD-69" target="2CEokhsZx8plSX26IugD-64">
          <mxGeometry relative="1" as="geometry" />
        </mxCell>
        <mxCell id="2CEokhsZx8plSX26IugD-74" style="edgeStyle=orthogonalEdgeStyle;rounded=0;orthogonalLoop=1;jettySize=auto;html=1;exitX=1;exitY=0.5;exitDx=0;exitDy=0;entryX=0;entryY=0.5;entryDx=0;entryDy=0;" edge="1" parent="1" source="2CEokhsZx8plSX26IugD-66" target="2CEokhsZx8plSX26IugD-70">
          <mxGeometry relative="1" as="geometry" />
        </mxCell>
        <mxCell id="2CEokhsZx8plSX26IugD-75" value="보상 내용 및 외형을 입력" style="text;html=1;align=center;verticalAlign=middle;whiteSpace=wrap;rounded=0;" vertex="1" parent="1">
          <mxGeometry x="205" y="1495" width="230" height="30" as="geometry" />
        </mxCell>
        <mxCell id="2CEokhsZx8plSX26IugD-76" style="edgeStyle=orthogonalEdgeStyle;rounded=0;orthogonalLoop=1;jettySize=auto;html=1;exitX=1;exitY=0.5;exitDx=0;exitDy=0;entryX=0;entryY=0.5;entryDx=0;entryDy=0;" edge="1" parent="1" source="2CEokhsZx8plSX26IugD-69" target="2CEokhsZx8plSX26IugD-63">
          <mxGeometry relative="1" as="geometry" />
        </mxCell>
        <mxCell id="2CEokhsZx8plSX26IugD-77" style="edgeStyle=orthogonalEdgeStyle;rounded=0;orthogonalLoop=1;jettySize=auto;html=1;exitX=1;exitY=0.5;exitDx=0;exitDy=0;entryX=0;entryY=0.5;entryDx=0;entryDy=0;" edge="1" parent="1" source="2CEokhsZx8plSX26IugD-63" target="2CEokhsZx8plSX26IugD-81">
          <mxGeometry relative="1" as="geometry">
            <mxPoint x="625" y="1305" as="targetPoint" />
          </mxGeometry>
        </mxCell>
        <mxCell id="2CEokhsZx8plSX26IugD-78" style="edgeStyle=orthogonalEdgeStyle;rounded=0;orthogonalLoop=1;jettySize=auto;html=1;exitX=1;exitY=0.5;exitDx=0;exitDy=0;entryX=0;entryY=0.5;entryDx=0;entryDy=0;" edge="1" parent="1" source="2CEokhsZx8plSX26IugD-64" target="2CEokhsZx8plSX26IugD-80">
          <mxGeometry relative="1" as="geometry">
            <mxPoint x="635" y="1485" as="targetPoint" />
          </mxGeometry>
        </mxCell>
        <mxCell id="2CEokhsZx8plSX26IugD-79" value="데이터를 바꿔 넣으면 최초보상이 아니어도 최초보상 UI 출력됨" style="text;html=1;align=center;verticalAlign=middle;whiteSpace=wrap;rounded=0;" vertex="1" parent="1">
          <mxGeometry x="550" y="1395" width="230" height="30" as="geometry" />
        </mxCell>
        <mxCell id="2CEokhsZx8plSX26IugD-80" value="결과물" style="shape=process;whiteSpace=wrap;html=1;backgroundOutline=1;" vertex="1" parent="1">
          <mxGeometry x="670" y="1445" width="120" height="60" as="geometry" />
        </mxCell>
        <mxCell id="2CEokhsZx8plSX26IugD-81" value="결과물" style="shape=process;whiteSpace=wrap;html=1;backgroundOutline=1;fillColor=#ffe6cc;strokeColor=#d79b00;" vertex="1" parent="1">
          <mxGeometry x="660" y="1280" width="120" height="60" as="geometry" />
        </mxCell>
        <mxCell id="2CEokhsZx8plSX26IugD-82" value="1번" style="text;html=1;align=center;verticalAlign=middle;whiteSpace=wrap;rounded=0;" vertex="1" parent="1">
          <mxGeometry x="-125" y="410" width="60" height="30" as="geometry" />
        </mxCell>
        <mxCell id="2CEokhsZx8plSX26IugD-83" value="2번" style="text;html=1;align=center;verticalAlign=middle;whiteSpace=wrap;rounded=0;" vertex="1" parent="1">
          <mxGeometry x="-125" y="825" width="60" height="30" as="geometry" />
        </mxCell>
      </root>
    </mxGraphModel>
  </diagram>
</mxfile>
